<svg width="151" height="25" viewBox="0 0 151 25" fill="none" xmlns="http://www.w3.org/2000/svg">
<path d="M10.9858 8.56534C10.9176 7.87784 10.625 7.34375 10.108 6.96307C9.59091 6.58239 8.8892 6.39204 8.00284 6.39204C7.40057 6.39204 6.89205 6.47727 6.47727 6.64773C6.0625 6.8125 5.74432 7.04261 5.52273 7.33807C5.30682 7.63352 5.19886 7.96875 5.19886 8.34375C5.1875 8.65625 5.25284 8.92898 5.39489 9.16193C5.54261 9.39489 5.74432 9.59659 6 9.76705C6.25568 9.93182 6.55114 10.0767 6.88636 10.2017C7.22159 10.321 7.57955 10.4233 7.96023 10.5085L9.52841 10.8835C10.2898 11.054 10.9886 11.2812 11.625 11.5653C12.2614 11.8494 12.8125 12.1989 13.2784 12.6136C13.7443 13.0284 14.1051 13.517 14.3608 14.0795C14.6222 14.642 14.7557 15.2869 14.7614 16.0142C14.7557 17.0824 14.483 18.0085 13.9432 18.7926C13.4091 19.571 12.6364 20.1761 11.625 20.608C10.6193 21.0341 9.40625 21.2472 7.9858 21.2472C6.5767 21.2472 5.34943 21.0312 4.30398 20.5994C3.2642 20.1676 2.4517 19.5284 1.86648 18.6818C1.28693 17.8295 0.982955 16.7756 0.954545 15.5199H4.52557C4.56534 16.1051 4.73295 16.5937 5.02841 16.9858C5.32955 17.3722 5.73011 17.6648 6.23011 17.8636C6.7358 18.0568 7.30682 18.1534 7.94318 18.1534C8.56818 18.1534 9.1108 18.0625 9.57102 17.8807C10.0369 17.6989 10.3977 17.446 10.6534 17.1222C10.9091 16.7983 11.0369 16.4261 11.0369 16.0057C11.0369 15.6136 10.9205 15.2841 10.6875 15.017C10.4602 14.75 10.125 14.5227 9.68182 14.3352C9.24432 14.1477 8.70739 13.9773 8.07102 13.8239L6.17045 13.3466C4.69886 12.9886 3.53693 12.429 2.68466 11.6676C1.83239 10.9062 1.40909 9.88068 1.41477 8.59091C1.40909 7.53409 1.69034 6.6108 2.25852 5.82102C2.83239 5.03125 3.61932 4.41477 4.61932 3.97159C5.61932 3.52841 6.75568 3.30682 8.02841 3.30682C9.32386 3.30682 10.4545 3.52841 11.4205 3.97159C12.392 4.41477 13.1477 5.03125 13.6875 5.82102C14.2273 6.6108 14.5057 7.52557 14.5227 8.56534H10.9858ZM19.8537 21H15.8991L21.9247 3.54545H26.6804L32.6974 21H28.7429L24.3707 7.53409H24.2344L19.8537 21ZM19.6065 14.1392H28.9474V17.0199H19.6065V14.1392ZM34.7983 21V3.54545H46.3551V6.58807H38.4886V10.7472H45.5881V13.7898H38.4886V21H34.7983ZM48.8374 21V3.54545H60.5987V6.58807H52.5277V10.7472H59.9936V13.7898H52.5277V17.9574H60.6328V21H48.8374Z" fill="#494949"/>
<path d="M62.8679 6.58807V3.54545H77.2031V6.58807H71.8594V21H68.2116V6.58807H62.8679ZM94.8068 12.2727C94.8068 14.1761 94.446 15.7955 93.7244 17.1307C93.0085 18.4659 92.0313 19.4858 90.7926 20.1903C89.5597 20.8892 88.1733 21.2386 86.6335 21.2386C85.0824 21.2386 83.6903 20.8864 82.4574 20.1818C81.2244 19.4773 80.25 18.4574 79.5341 17.1222C78.8182 15.7869 78.4602 14.1705 78.4602 12.2727C78.4602 10.3693 78.8182 8.75 79.5341 7.41477C80.25 6.07955 81.2244 5.0625 82.4574 4.36364C83.6903 3.65909 85.0824 3.30682 86.6335 3.30682C88.1733 3.30682 89.5597 3.65909 90.7926 4.36364C92.0313 5.0625 93.0085 6.07955 93.7244 7.41477C94.446 8.75 94.8068 10.3693 94.8068 12.2727ZM91.0653 12.2727C91.0653 11.0398 90.8807 10 90.5114 9.15341C90.1477 8.30682 89.6335 7.66477 88.9688 7.22727C88.304 6.78977 87.5256 6.57102 86.6335 6.57102C85.7415 6.57102 84.9631 6.78977 84.2983 7.22727C83.6335 7.66477 83.1165 8.30682 82.7472 9.15341C82.3835 10 82.2017 11.0398 82.2017 12.2727C82.2017 13.5057 82.3835 14.5455 82.7472 15.392C83.1165 16.2386 83.6335 16.8807 84.2983 17.3182C84.9631 17.7557 85.7415 17.9744 86.6335 17.9744C87.5256 17.9744 88.304 17.7557 88.9688 17.3182C89.6335 16.8807 90.1477 16.2386 90.5114 15.392C90.8807 14.5455 91.0653 13.5057 91.0653 12.2727ZM108.322 3.54545H112.012V14.8807C112.012 16.1534 111.708 17.267 111.1 18.2216C110.498 19.1761 109.654 19.9205 108.569 20.4545C107.484 20.983 106.219 21.2472 104.776 21.2472C103.327 21.2472 102.06 20.983 100.975 20.4545C99.8899 19.9205 99.0462 19.1761 98.4439 18.2216C97.8416 17.267 97.5405 16.1534 97.5405 14.8807V3.54545H101.231V14.5653C101.231 15.2301 101.376 15.821 101.665 16.3381C101.961 16.8551 102.376 17.2614 102.91 17.5568C103.444 17.8523 104.066 18 104.776 18C105.492 18 106.114 17.8523 106.643 17.5568C107.177 17.2614 107.589 16.8551 107.879 16.3381C108.174 15.821 108.322 15.2301 108.322 14.5653V3.54545ZM115.048 21V3.54545H121.935C123.253 3.54545 124.378 3.78125 125.31 4.25284C126.247 4.71875 126.96 5.38068 127.449 6.23864C127.943 7.09091 128.19 8.09375 128.19 9.24716C128.19 10.4062 127.94 11.4034 127.44 12.2386C126.94 13.0682 126.216 13.7045 125.267 14.1477C124.324 14.5909 123.182 14.8125 121.841 14.8125H117.23V11.8466H121.244C121.949 11.8466 122.534 11.75 123 11.5568C123.466 11.3636 123.813 11.0739 124.04 10.6875C124.273 10.3011 124.389 9.82102 124.389 9.24716C124.389 8.66761 124.273 8.17898 124.04 7.78125C123.813 7.38352 123.463 7.08239 122.991 6.87784C122.526 6.66761 121.938 6.5625 121.227 6.5625H118.739V21H115.048ZM124.474 13.0568L128.812 21H124.739L120.494 13.0568H124.474Z" fill="#2AA7FF"/>
<path d="M127.569 20.2581H130.284C130.444 20.2581 130.577 20.1339 130.6 19.9758C130.731 19.0544 131.401 16.1937 134.651 16.1935C137.882 16.1934 138.418 19.0229 138.507 19.9604C138.522 20.1253 138.659 20.2581 138.824 20.2581H142.685M147.563 15.6129C147.563 15.6129 148.208 20.2581 147.563 20.2581C146.917 20.2581 144.702 20.2581 142.685 20.2581M147.563 15.6129L145.889 6.90336M147.563 15.6129L144.98 14.7418M140.5 13.5C140.5 13.5 140.583 7.00013 138 6.99999C136.929 6.99993 133.67 6.94341 132.59 6.92413C132.404 6.92082 132.264 7.08354 132.302 7.26529C132.47 8.08278 132.995 10.1233 134.174 10.9823C135.217 11.7415 135.942 12.1292 135.942 12.1292M140.5 13.5L135.942 12.1292M140.5 13.5L144.98 14.7418M121.5 4.4999C121.986 4.49992 136.561 4.49999 141.304 4.49996C142.864 4.49995 144.18 4.50004 144.5 4.5C145.272 4.49992 145.626 5.74207 145.626 5.74207M126 6.90322L129.781 6.99469C129.911 6.99785 130.025 7.08507 130.062 7.2104L131.388 11.745C131.444 11.937 131.3 12.1292 131.1 12.1292H129.25H127M145.626 5.74207C145.626 5.74207 147.718 5.42268 148.5 6.12637C149.146 6.70701 150.042 9.22593 150.042 9.80659C150.042 10.3136 149.663 11.0158 149.457 10.5836C149.251 10.1514 148.099 7.28768 147.915 6.90336C147.732 6.51904 145.889 6.90336 145.889 6.90336M145.626 5.74207L145.889 6.90336M145.889 6.90336L143.427 6.90324C143.232 6.90323 143.089 7.08604 143.136 7.27519L144.98 14.7418M135.942 12.1292L141.46 16.5262C142.122 17.0539 142.531 17.8368 142.584 18.6819L142.685 20.2581M134.5 18C135.704 17.9471 136.788 18.7966 136.849 20C136.913 21.2592 135.76 22.2703 134.5 22.2146C133.296 22.1613 132.288 21.204 132.349 20C132.408 18.8546 133.354 18.0503 134.5 18Z" stroke="#2AA7FF" stroke-width="1.5"/>
</svg>
