<svg width="24" height="24" viewBox="0 0 24 24" fill="none" xmlns="http://www.w3.org/2000/svg">
<path d="M17 2H7C4.23858 2 2 4.23858 2 7V17C2 19.7614 4.23858 22 7 22H17C19.7614 22 22 19.7614 22 17V7C22 4.23858 19.7614 2 17 2Z" stroke="white" stroke-width="2" stroke-linecap="round" stroke-linejoin="round"/>
<path d="M16.0002 11.3701C16.1236 12.2023 15.9815 13.0523 15.594 13.7991C15.2065 14.5459 14.5933 15.1515 13.8418 15.5297C13.0903 15.908 12.2386 16.0397 11.408 15.906C10.5773 15.7723 9.80996 15.3801 9.21503 14.7852C8.62011 14.1903 8.22793 13.4229 8.09426 12.5923C7.9606 11.7616 8.09226 10.91 8.47052 10.1584C8.84878 9.40691 9.45438 8.7938 10.2012 8.4063C10.948 8.0188 11.7979 7.87665 12.6302 8.00006C13.4791 8.12594 14.265 8.52152 14.8719 9.12836C15.4787 9.73521 15.8743 10.5211 16.0002 11.3701Z" stroke="white" stroke-width="2" stroke-linecap="round" stroke-linejoin="round"/>
<path d="M17.9946 6.42666C18.01 6.53069 17.9922 6.63694 17.9438 6.73028C17.8954 6.82363 17.8187 6.89933 17.7248 6.94662C17.6309 6.9939 17.5244 7.01036 17.4206 6.99365C17.3167 6.97694 17.2208 6.92792 17.1464 6.85355C17.0721 6.77919 17.0231 6.68327 17.0064 6.57943C16.9896 6.4756 17.0061 6.36915 17.0534 6.27521C17.1007 6.18127 17.1764 6.10463 17.2697 6.05619C17.3631 6.00775 17.4693 5.98998 17.5733 6.00541C17.6795 6.02114 17.7777 6.07059 17.8536 6.14645C17.9294 6.2223 17.9789 6.32054 17.9946 6.42666Z" stroke="white" stroke-width="2" stroke-linecap="round" stroke-linejoin="round"/>
</svg>
